<svg xmlns="http://www.w3.org/2000/svg" xmlns:xlink="http://www.w3.org/1999/xlink" fill="none"
  version="1.1" width="13.166666984558105" height="11.333333969116211"
  viewBox="0 0 13.166666984558105 11.333333969116211">
  <g transform="matrix(-1,0,0,1,26.33333396911621,0)">
    <path
      d="M15.166666984558105,0L24.333333984558106,0C25.437901984558106,0,26.333333984558106,0.89543003,26.333333984558106,2L26.333333984558106,9.333334C26.333333984558106,10.437901,25.437901984558106,11.333334,24.333333984558106,11.333334L15.166666984558105,11.333334C14.062097014558105,11.333334,13.166666984558105,10.437901,13.166666984558105,9.333334L13.166666984558105,2C13.166666984558105,0.89543003,14.062097014558105,0,15.166666984558105,0ZM25.333333984558106,2C25.333333984558106,1.4477167,24.885632984558107,1,24.333333984558106,1L15.166666984558105,1C14.614383684558106,1,14.166666984558105,1.4477167,14.166666984558105,2L14.166666984558105,6.3762336L15.335787084558106,5.2071338C16.116833684558106,4.4260674,17.383167284558105,4.4260674,18.164200284558106,5.2071338L23.270233984558104,10.313133C23.276833984558106,10.319734,23.283199984558106,10.326468,23.289333984558105,10.333334L24.333333984558106,10.333334C24.885632984558107,10.333334,25.333333984558106,9.8856335,25.333333984558106,9.333334L25.333333984558106,2ZM21.876200684558107,10.333334L17.457099884558104,5.9142332C17.066566484558106,5.5236998,16.433416884558106,5.5236998,16.042893384558106,5.9142332L14.166666684558106,7.7904663L14.166666684558106,9.333334C14.166666684558106,9.8856335,14.614383484558106,10.333334,15.166666784558105,10.333334L21.876200684558107,10.333334ZM20.250000484558107,4.0000668C20.250000484558107,2.9875603,21.070800784558106,2.1667469,22.083333984558106,2.1667469C23.095867184558106,2.1667469,23.916666984558105,2.9875603,23.916666984558105,4.0000668C23.916666984558105,5.0125999,23.095867184558106,5.8334002,22.083333984558106,5.8334002C21.070800784558106,5.8334002,20.250000484558107,5.0125999,20.250000484558107,4.0000668ZM22.083333984558106,4.8334002C22.543566684558105,4.8334002,22.916666984558105,4.4603338,22.916666984558105,4.0000668C22.916666984558105,3.5398335,22.543566684558105,3.1667469,22.083333984558106,3.1667469C21.623101184558106,3.1667469,21.250000984558106,3.5398335,21.250000984558106,4.0000668C21.250000984558106,4.4603338,21.623101184558106,4.8334002,22.083333984558106,4.8334002Z"
      fill="#111925" fill-opacity="1" />
  </g>
</svg>